{
	"asset":{
		"generator":"Khronos glTF Blender I/O v3.5.30",
		"version":"2.0"
	},
	"scene":0,
	"scenes":[
		{
			"name":"Scene",
			"nodes":[
				12
			]
		}
	],
	"nodes":[
		{
			"mesh":0,
			"name":"body"
		},
		{
			"mesh":1,
			"name":"cube"
		},
		{
			"mesh":2,
			"name":"downCover"
		},
		{
			"name":"leftBackAxis",
			"rotation":[
				0.7071068286895752,
				0,
				0.7071067094802856,
				2.4164285150618525e-07
			]
		},
		{
			"children":[
				3
			],
			"mesh":3,
			"name":"leftBack",
			"scale":[
				0.9600000381469727,
				0.9600000381469727,
				0.9600000381469727
			],
			"translation":[
				-2.283421516418457,
				-1.1590368747711182,
				1.8189157247543335
			]
		},
		{
			"name":"leftFrontAxis",
			"rotation":[
				0.7071068286895752,
				0,
				0.7071067094802856,
				2.416428799278947e-07
			]
		},
		{
			"children":[
				5
			],
			"mesh":4,
			"name":"leftFront",
			"scale":[
				0.9600000381469727,
				0.9600000381469727,
				0.9600000381469727
			],
			"translation":[
				1.6941258907318115,
				-1.107104778289795,
				1.8408137559890747
			]
		},
		{
			"name":"rightBackAxis",
			"rotation":[
				0.7071068286895752,
				0,
				0.7071067094802856,
				2.416428799278947e-07
			]
		},
		{
			"children":[
				7
			],
			"mesh":5,
			"name":"rightBack",
			"scale":[
				0.9600000381469727,
				0.9600000381469727,
				0.9600000381469727
			],
			"translation":[
				-2.2902257442474365,
				-1.1945843696594238,
				-2.6172213554382324
			]
		},
		{
			"name":"rightFrontAxis",
			"rotation":[
				0.03872789070010185,
				-0.0036751427687704563,
				-0.9992192387580872,
				0.006898007355630398
			],
			"translation":[
				0.00661015510559082,
				0,
				-0.01252069417387247
			]
		},
		{
			"children":[
				9
			],
			"mesh":6,
			"name":"rightFront",
			"scale":[
				0.9600000381469727,
				0.9600000381469727,
				0.9600000381469727
			],
			"translation":[
				1.6853591203689575,
				-1.1389148235321045,
				-2.7041285037994385
			]
		},
		{
			"mesh":7,
			"name":"upCover"
		},
		{
			"children":[
				0,
				1,
				2,
				4,
				6,
				8,
				10,
				11
			],
			"name":"air",
			"rotation":[
				0.70710688829422,
				0,
				0,
				0.7071066498756409
			],
			"translation":[
				0.2800000011920929,
				-0.44999998807907104,
				0
			]
		}
	],
	"animations":[
		{
			"channels":[
				{
					"sampler":0,
					"target":{
						"node":4,
						"path":"rotation"
					}
				},
				{
					"sampler":1,
					"target":{
						"node":4,
						"path":"translation"
					}
				},
				{
					"sampler":2,
					"target":{
						"node":4,
						"path":"scale"
					}
				}
			],
			"name":"leftBackAction",
			"samplers":[
				{
					"input":57,
					"interpolation":"LINEAR",
					"output":58
				},
				{
					"input":59,
					"interpolation":"STEP",
					"output":60
				},
				{
					"input":59,
					"interpolation":"STEP",
					"output":61
				}
			]
		},
		{
			"channels":[
				{
					"sampler":0,
					"target":{
						"node":6,
						"path":"rotation"
					}
				},
				{
					"sampler":1,
					"target":{
						"node":6,
						"path":"translation"
					}
				},
				{
					"sampler":2,
					"target":{
						"node":6,
						"path":"scale"
					}
				}
			],
			"name":"leftFrontAction",
			"samplers":[
				{
					"input":57,
					"interpolation":"LINEAR",
					"output":62
				},
				{
					"input":59,
					"interpolation":"STEP",
					"output":63
				},
				{
					"input":59,
					"interpolation":"STEP",
					"output":64
				}
			]
		},
		{
			"channels":[
				{
					"sampler":0,
					"target":{
						"node":8,
						"path":"rotation"
					}
				},
				{
					"sampler":1,
					"target":{
						"node":8,
						"path":"translation"
					}
				},
				{
					"sampler":2,
					"target":{
						"node":8,
						"path":"scale"
					}
				}
			],
			"name":"rightBackAction",
			"samplers":[
				{
					"input":57,
					"interpolation":"LINEAR",
					"output":65
				},
				{
					"input":59,
					"interpolation":"STEP",
					"output":66
				},
				{
					"input":59,
					"interpolation":"STEP",
					"output":67
				}
			]
		},
		{
			"channels":[
				{
					"sampler":0,
					"target":{
						"node":10,
						"path":"rotation"
					}
				},
				{
					"sampler":1,
					"target":{
						"node":10,
						"path":"translation"
					}
				},
				{
					"sampler":2,
					"target":{
						"node":10,
						"path":"scale"
					}
				}
			],
			"name":"rightFrontAction",
			"samplers":[
				{
					"input":57,
					"interpolation":"LINEAR",
					"output":68
				},
				{
					"input":59,
					"interpolation":"STEP",
					"output":69
				},
				{
					"input":59,
					"interpolation":"STEP",
					"output":70
				}
			]
		},
		{
			"channels":[
				{
					"sampler":0,
					"target":{
						"node":9,
						"path":"translation"
					}
				}
			],
			"name":"rightFrontAxisAction",
			"samplers":[
				{
					"input":71,
					"interpolation":"STEP",
					"output":72
				}
			]
		}
	],
	"materials":[
		{
			"alphaMode":"BLEND",
			"doubleSided":true,
			"emissiveFactor":[
				1,
				1,
				1
			],
			"emissiveTexture":{
				"index":0
			},
			"name":"BASE2",
			"normalTexture":{
				"index":1
			},
			"pbrMetallicRoughness":{
				"baseColorTexture":{
					"index":2
				},
				"metallicRoughnessTexture":{
					"index":3
				}
			}
		},
		{
			"alphaMode":"BLEND",
			"doubleSided":true,
			"name":"ROTOR",
			"normalTexture":{
				"index":4
			},
			"pbrMetallicRoughness":{
				"baseColorTexture":{
					"index":5
				},
				"metallicRoughnessTexture":{
					"index":6
				}
			}
		}
	],
	"meshes":[
		{
			"name":"bodyMesh",
			"primitives":[
				{
					"attributes":{
						"POSITION":0,
						"TEXCOORD_0":1,
						"TEXCOORD_1":2,
						"TEXCOORD_2":3,
						"TEXCOORD_3":4,
						"TEXCOORD_4":5,
						"NORMAL":6
					},
					"indices":7,
					"material":0
				}
			]
		},
		{
			"name":"Mesh",
			"primitives":[
				{
					"attributes":{
						"POSITION":8,
						"TEXCOORD_0":9,
						"TEXCOORD_1":10,
						"TEXCOORD_2":11,
						"TEXCOORD_3":12,
						"NORMAL":13
					},
					"indices":14,
					"material":1
				}
			]
		},
		{
			"name":"downCoverMesh",
			"primitives":[
				{
					"attributes":{
						"POSITION":15,
						"TEXCOORD_0":16,
						"TEXCOORD_1":17,
						"TEXCOORD_2":18,
						"TEXCOORD_3":19,
						"NORMAL":20
					},
					"indices":21
				}
			]
		},
		{
			"name":"leftBackMesh",
			"primitives":[
				{
					"attributes":{
						"POSITION":22,
						"TEXCOORD_0":23,
						"TEXCOORD_1":24,
						"TEXCOORD_2":25,
						"TEXCOORD_3":26,
						"NORMAL":27
					},
					"indices":28
				}
			]
		},
		{
			"name":"leftFrontMesh",
			"primitives":[
				{
					"attributes":{
						"POSITION":29,
						"TEXCOORD_0":30,
						"TEXCOORD_1":31,
						"TEXCOORD_2":32,
						"TEXCOORD_3":33,
						"NORMAL":34
					},
					"indices":35
				}
			]
		},
		{
			"name":"rightBackMesh",
			"primitives":[
				{
					"attributes":{
						"POSITION":36,
						"TEXCOORD_0":37,
						"TEXCOORD_1":38,
						"TEXCOORD_2":39,
						"TEXCOORD_3":40,
						"NORMAL":41
					},
					"indices":42
				}
			]
		},
		{
			"name":"rightFrontMesh",
			"primitives":[
				{
					"attributes":{
						"POSITION":43,
						"TEXCOORD_0":44,
						"TEXCOORD_1":45,
						"TEXCOORD_2":46,
						"TEXCOORD_3":47,
						"NORMAL":48
					},
					"indices":49
				}
			]
		},
		{
			"name":"upCoverMesh",
			"primitives":[
				{
					"attributes":{
						"POSITION":50,
						"TEXCOORD_0":51,
						"TEXCOORD_1":52,
						"TEXCOORD_2":53,
						"TEXCOORD_3":54,
						"NORMAL":55
					},
					"indices":56
				}
			]
		}
	],
	"textures":[
		{
			"sampler":0,
			"source":0
		},
		{
			"sampler":0,
			"source":1
		},
		{
			"sampler":0,
			"source":2
		},
		{
			"sampler":0,
			"source":3
		},
		{
			"sampler":0,
			"source":4
		},
		{
			"sampler":0,
			"source":5
		},
		{
			"sampler":0,
			"source":6
		}
	],
	"images":[
		{
			"bufferView":8,
			"mimeType":"image/png",
			"name":"BASE2_Emissive"
		},
		{
			"bufferView":9,
			"mimeType":"image/png",
			"name":"BASE2_Normal"
		},
		{
			"bufferView":10,
			"mimeType":"image/png",
			"name":"BASE2_Base_Color"
		},
		{
			"bufferView":11,
			"mimeType":"image/png",
			"name":"BASE2_Metallic_png-BASE2_Roughness_png@channels=B-BASE2_Metallic_png-BASE2_Roughness_png@channels=G"
		},
		{
			"bufferView":19,
			"mimeType":"image/png",
			"name":"ROTOR_Normal"
		},
		{
			"bufferView":20,
			"mimeType":"image/png",
			"name":"ROTOR_Base_Color_png-ROTOR_Opacity_png"
		},
		{
			"bufferView":21,
			"mimeType":"image/png",
			"name":"ROTOR_Metallic_png-ROTOR_Roughness_png@channels=B-ROTOR_Metallic_png-ROTOR_Roughness_png@channels=G"
		}
	],
	"accessors":[
		{
			"bufferView":0,
			"componentType":5126,
			"count":8060,
			"max":[
				2.0108025074005127,
				0.1164093092083931,
				0.7745429277420044
			],
			"min":[
				-2.784630060195923,
				-0.584869384765625,
				-1.613466501235962
			],
			"type":"VEC3"
		},
		{
			"bufferView":1,
			"componentType":5126,
			"count":8060,
			"type":"VEC2"
		},
		{
			"bufferView":2,
			"componentType":5126,
			"count":8060,
			"type":"VEC2"
		},
		{
			"bufferView":3,
			"componentType":5126,
			"count":8060,
			"type":"VEC2"
		},
		{
			"bufferView":4,
			"componentType":5126,
			"count":8060,
			"type":"VEC2"
		},
		{
			"bufferView":5,
			"componentType":5126,
			"count":8060,
			"type":"VEC2"
		},
		{
			"bufferView":6,
			"componentType":5126,
			"count":8060,
			"type":"VEC3"
		},
		{
			"bufferView":7,
			"componentType":5123,
			"count":29187,
			"type":"SCALAR"
		},
		{
			"bufferView":12,
			"componentType":5126,
			"count":8719,
			"max":[
				2.003098249435425,
				0.48274528980255127,
				2.212209701538086
			],
			"min":[
				-2.565109968185425,
				-1.0145635604858398,
				-3.053544521331787
			],
			"type":"VEC3"
		},
		{
			"bufferView":13,
			"componentType":5126,
			"count":8719,
			"type":"VEC2"
		},
		{
			"bufferView":14,
			"componentType":5126,
			"count":8719,
			"type":"VEC2"
		},
		{
			"bufferView":15,
			"componentType":5126,
			"count":8719,
			"type":"VEC2"
		},
		{
			"bufferView":16,
			"componentType":5126,
			"count":8719,
			"type":"VEC2"
		},
		{
			"bufferView":17,
			"componentType":5126,
			"count":8719,
			"type":"VEC3"
		},
		{
			"bufferView":18,
			"componentType":5123,
			"count":28374,
			"type":"SCALAR"
		},
		{
			"bufferView":22,
			"componentType":5126,
			"count":261,
			"max":[
				1.7862210273742676,
				-0.41714391112327576,
				1.7357816696166992
			],
			"min":[
				-2.7738661766052246,
				-1.172115445137024,
				-2.698570966720581
			],
			"type":"VEC3"
		},
		{
			"bufferView":23,
			"componentType":5126,
			"count":261,
			"type":"VEC2"
		},
		{
			"bufferView":24,
			"componentType":5126,
			"count":261,
			"type":"VEC2"
		},
		{
			"bufferView":25,
			"componentType":5126,
			"count":261,
			"type":"VEC2"
		},
		{
			"bufferView":26,
			"componentType":5126,
			"count":261,
			"type":"VEC2"
		},
		{
			"bufferView":27,
			"componentType":5126,
			"count":261,
			"type":"VEC3"
		},
		{
			"bufferView":28,
			"componentType":5123,
			"count":684,
			"type":"SCALAR"
		},
		{
			"bufferView":29,
			"componentType":5126,
			"count":1458,
			"max":[
				1.7025542259216309,
				0.22286927700042725,
				0.9557492733001709
			],
			"min":[
				-1.7340044975280762,
				-0.16215300559997559,
				-0.9510843753814697
			],
			"type":"VEC3"
		},
		{
			"bufferView":30,
			"componentType":5126,
			"count":1458,
			"type":"VEC2"
		},
		{
			"bufferView":31,
			"componentType":5126,
			"count":1458,
			"type":"VEC2"
		},
		{
			"bufferView":32,
			"componentType":5126,
			"count":1458,
			"type":"VEC2"
		},
		{
			"bufferView":33,
			"componentType":5126,
			"count":1458,
			"type":"VEC2"
		},
		{
			"bufferView":34,
			"componentType":5126,
			"count":1458,
			"type":"VEC3"
		},
		{
			"bufferView":35,
			"componentType":5123,
			"count":5280,
			"type":"SCALAR"
		},
		{
			"bufferView":36,
			"componentType":5126,
			"count":1458,
			"max":[
				1.7385540008544922,
				0.22286885976791382,
				0.9514045715332031
			],
			"min":[
				-1.707037091255188,
				-0.16214215755462646,
				-0.9467662572860718
			],
			"type":"VEC3"
		},
		{
			"bufferView":37,
			"componentType":5126,
			"count":1458,
			"type":"VEC2"
		},
		{
			"bufferView":38,
			"componentType":5126,
			"count":1458,
			"type":"VEC2"
		},
		{
			"bufferView":39,
			"componentType":5126,
			"count":1458,
			"type":"VEC2"
		},
		{
			"bufferView":40,
			"componentType":5126,
			"count":1458,
			"type":"VEC2"
		},
		{
			"bufferView":41,
			"componentType":5126,
			"count":1458,
			"type":"VEC3"
		},
		{
			"bufferView":42,
			"componentType":5123,
			"count":5280,
			"type":"SCALAR"
		},
		{
			"bufferView":43,
			"componentType":5126,
			"count":1458,
			"max":[
				1.6988083124160767,
				0.22287261486053467,
				0.9547754526138306
			],
			"min":[
				-1.7301766872406006,
				-0.16214942932128906,
				-0.9594454765319824
			],
			"type":"VEC3"
		},
		{
			"bufferView":44,
			"componentType":5126,
			"count":1458,
			"type":"VEC2"
		},
		{
			"bufferView":45,
			"componentType":5126,
			"count":1458,
			"type":"VEC2"
		},
		{
			"bufferView":46,
			"componentType":5126,
			"count":1458,
			"type":"VEC2"
		},
		{
			"bufferView":47,
			"componentType":5126,
			"count":1458,
			"type":"VEC2"
		},
		{
			"bufferView":48,
			"componentType":5126,
			"count":1458,
			"type":"VEC3"
		},
		{
			"bufferView":49,
			"componentType":5123,
			"count":5280,
			"type":"SCALAR"
		},
		{
			"bufferView":50,
			"componentType":5126,
			"count":1458,
			"max":[
				1.7369283437728882,
				0.22287511825561523,
				0.9482971429824829
			],
			"min":[
				-1.705443024635315,
				-0.16214728355407715,
				-0.9529454708099365
			],
			"type":"VEC3"
		},
		{
			"bufferView":51,
			"componentType":5126,
			"count":1458,
			"type":"VEC2"
		},
		{
			"bufferView":52,
			"componentType":5126,
			"count":1458,
			"type":"VEC2"
		},
		{
			"bufferView":53,
			"componentType":5126,
			"count":1458,
			"type":"VEC2"
		},
		{
			"bufferView":54,
			"componentType":5126,
			"count":1458,
			"type":"VEC2"
		},
		{
			"bufferView":55,
			"componentType":5126,
			"count":1458,
			"type":"VEC3"
		},
		{
			"bufferView":56,
			"componentType":5123,
			"count":5280,
			"type":"SCALAR"
		},
		{
			"bufferView":57,
			"componentType":5126,
			"count":4790,
			"max":[
				2.0734899044036865,
				0.16525979340076447,
				0.5410062074661255
			],
			"min":[
				-2.1372885704040527,
				-0.6335224509239197,
				-1.4241793155670166
			],
			"type":"VEC3"
		},
		{
			"bufferView":58,
			"componentType":5126,
			"count":4790,
			"type":"VEC2"
		},
		{
			"bufferView":59,
			"componentType":5126,
			"count":4790,
			"type":"VEC2"
		},
		{
			"bufferView":60,
			"componentType":5126,
			"count":4790,
			"type":"VEC2"
		},
		{
			"bufferView":61,
			"componentType":5126,
			"count":4790,
			"type":"VEC2"
		},
		{
			"bufferView":62,
			"componentType":5126,
			"count":4790,
			"type":"VEC3"
		},
		{
			"bufferView":63,
			"componentType":5123,
			"count":17568,
			"type":"SCALAR"
		},
		{
			"bufferView":64,
			"componentType":5126,
			"count":9,
			"max":[
				0.3333333333333333
			],
			"min":[
				0
			],
			"type":"SCALAR"
		},
		{
			"bufferView":65,
			"componentType":5126,
			"count":9,
			"type":"VEC4"
		},
		{
			"bufferView":66,
			"componentType":5126,
			"count":1,
			"max":[
				0.3333333333333333
			],
			"min":[
				0.3333333333333333
			],
			"type":"SCALAR"
		},
		{
			"bufferView":67,
			"componentType":5126,
			"count":1,
			"type":"VEC3"
		},
		{
			"bufferView":68,
			"componentType":5126,
			"count":1,
			"type":"VEC3"
		},
		{
			"bufferView":69,
			"componentType":5126,
			"count":9,
			"type":"VEC4"
		},
		{
			"bufferView":70,
			"componentType":5126,
			"count":1,
			"type":"VEC3"
		},
		{
			"bufferView":71,
			"componentType":5126,
			"count":1,
			"type":"VEC3"
		},
		{
			"bufferView":72,
			"componentType":5126,
			"count":9,
			"type":"VEC4"
		},
		{
			"bufferView":73,
			"componentType":5126,
			"count":1,
			"type":"VEC3"
		},
		{
			"bufferView":74,
			"componentType":5126,
			"count":1,
			"type":"VEC3"
		},
		{
			"bufferView":75,
			"componentType":5126,
			"count":9,
			"type":"VEC4"
		},
		{
			"bufferView":76,
			"componentType":5126,
			"count":1,
			"type":"VEC3"
		},
		{
			"bufferView":77,
			"componentType":5126,
			"count":1,
			"type":"VEC3"
		},
		{
			"bufferView":78,
			"componentType":5126,
			"count":1,
			"max":[
				0
			],
			"min":[
				0
			],
			"type":"SCALAR"
		},
		{
			"bufferView":79,
			"componentType":5126,
			"count":1,
			"type":"VEC3"
		}
	],
	"bufferViews":[
		{
			"buffer":0,
			"byteLength":96720,
			"byteOffset":0,
			"target":34962
		},
		{
			"buffer":0,
			"byteLength":64480,
			"byteOffset":96720,
			"target":34962
		},
		{
			"buffer":0,
			"byteLength":64480,
			"byteOffset":161200,
			"target":34962
		},
		{
			"buffer":0,
			"byteLength":64480,
			"byteOffset":225680,
			"target":34962
		},
		{
			"buffer":0,
			"byteLength":64480,
			"byteOffset":290160,
			"target":34962
		},
		{
			"buffer":0,
			"byteLength":64480,
			"byteOffset":354640,
			"target":34962
		},
		{
			"buffer":0,
			"byteLength":96720,
			"byteOffset":419120,
			"target":34962
		},
		{
			"buffer":0,
			"byteLength":58374,
			"byteOffset":515840,
			"target":34963
		},
		{
			"buffer":0,
			"byteLength":167474,
			"byteOffset":574216
		},
		{
			"buffer":0,
			"byteLength":166726,
			"byteOffset":741692
		},
		{
			"buffer":0,
			"byteLength":31333,
			"byteOffset":908420
		},
		{
			"buffer":0,
			"byteLength":59419,
			"byteOffset":939756
		},
		{
			"buffer":0,
			"byteLength":104628,
			"byteOffset":999176,
			"target":34962
		},
		{
			"buffer":0,
			"byteLength":69752,
			"byteOffset":1103804,
			"target":34962
		},
		{
			"buffer":0,
			"byteLength":69752,
			"byteOffset":1173556,
			"target":34962
		},
		{
			"buffer":0,
			"byteLength":69752,
			"byteOffset":1243308,
			"target":34962
		},
		{
			"buffer":0,
			"byteLength":69752,
			"byteOffset":1313060,
			"target":34962
		},
		{
			"buffer":0,
			"byteLength":104628,
			"byteOffset":1382812,
			"target":34962
		},
		{
			"buffer":0,
			"byteLength":56748,
			"byteOffset":1487440,
			"target":34963
		},
		{
			"buffer":0,
			"byteLength":166726,
			"byteOffset":1544188
		},
		{
			"buffer":0,
			"byteLength":104310,
			"byteOffset":1710916
		},
		{
			"buffer":0,
			"byteLength":248323,
			"byteOffset":1815228
		},
		{
			"buffer":0,
			"byteLength":3132,
			"byteOffset":2063552,
			"target":34962
		},
		{
			"buffer":0,
			"byteLength":2088,
			"byteOffset":2066684,
			"target":34962
		},
		{
			"buffer":0,
			"byteLength":2088,
			"byteOffset":2068772,
			"target":34962
		},
		{
			"buffer":0,
			"byteLength":2088,
			"byteOffset":2070860,
			"target":34962
		},
		{
			"buffer":0,
			"byteLength":2088,
			"byteOffset":2072948,
			"target":34962
		},
		{
			"buffer":0,
			"byteLength":3132,
			"byteOffset":2075036,
			"target":34962
		},
		{
			"buffer":0,
			"byteLength":1368,
			"byteOffset":2078168,
			"target":34963
		},
		{
			"buffer":0,
			"byteLength":17496,
			"byteOffset":2079536,
			"target":34962
		},
		{
			"buffer":0,
			"byteLength":11664,
			"byteOffset":2097032,
			"target":34962
		},
		{
			"buffer":0,
			"byteLength":11664,
			"byteOffset":2108696,
			"target":34962
		},
		{
			"buffer":0,
			"byteLength":11664,
			"byteOffset":2120360,
			"target":34962
		},
		{
			"buffer":0,
			"byteLength":11664,
			"byteOffset":2132024,
			"target":34962
		},
		{
			"buffer":0,
			"byteLength":17496,
			"byteOffset":2143688,
			"target":34962
		},
		{
			"buffer":0,
			"byteLength":10560,
			"byteOffset":2161184,
			"target":34963
		},
		{
			"buffer":0,
			"byteLength":17496,
			"byteOffset":2171744,
			"target":34962
		},
		{
			"buffer":0,
			"byteLength":11664,
			"byteOffset":2189240,
			"target":34962
		},
		{
			"buffer":0,
			"byteLength":11664,
			"byteOffset":2200904,
			"target":34962
		},
		{
			"buffer":0,
			"byteLength":11664,
			"byteOffset":2212568,
			"target":34962
		},
		{
			"buffer":0,
			"byteLength":11664,
			"byteOffset":2224232,
			"target":34962
		},
		{
			"buffer":0,
			"byteLength":17496,
			"byteOffset":2235896,
			"target":34962
		},
		{
			"buffer":0,
			"byteLength":10560,
			"byteOffset":2253392,
			"target":34963
		},
		{
			"buffer":0,
			"byteLength":17496,
			"byteOffset":2263952,
			"target":34962
		},
		{
			"buffer":0,
			"byteLength":11664,
			"byteOffset":2281448,
			"target":34962
		},
		{
			"buffer":0,
			"byteLength":11664,
			"byteOffset":2293112,
			"target":34962
		},
		{
			"buffer":0,
			"byteLength":11664,
			"byteOffset":2304776,
			"target":34962
		},
		{
			"buffer":0,
			"byteLength":11664,
			"byteOffset":2316440,
			"target":34962
		},
		{
			"buffer":0,
			"byteLength":17496,
			"byteOffset":2328104,
			"target":34962
		},
		{
			"buffer":0,
			"byteLength":10560,
			"byteOffset":2345600,
			"target":34963
		},
		{
			"buffer":0,
			"byteLength":17496,
			"byteOffset":2356160,
			"target":34962
		},
		{
			"buffer":0,
			"byteLength":11664,
			"byteOffset":2373656,
			"target":34962
		},
		{
			"buffer":0,
			"byteLength":11664,
			"byteOffset":2385320,
			"target":34962
		},
		{
			"buffer":0,
			"byteLength":11664,
			"byteOffset":2396984,
			"target":34962
		},
		{
			"buffer":0,
			"byteLength":11664,
			"byteOffset":2408648,
			"target":34962
		},
		{
			"buffer":0,
			"byteLength":17496,
			"byteOffset":2420312,
			"target":34962
		},
		{
			"buffer":0,
			"byteLength":10560,
			"byteOffset":2437808,
			"target":34963
		},
		{
			"buffer":0,
			"byteLength":57480,
			"byteOffset":2448368,
			"target":34962
		},
		{
			"buffer":0,
			"byteLength":38320,
			"byteOffset":2505848,
			"target":34962
		},
		{
			"buffer":0,
			"byteLength":38320,
			"byteOffset":2544168,
			"target":34962
		},
		{
			"buffer":0,
			"byteLength":38320,
			"byteOffset":2582488,
			"target":34962
		},
		{
			"buffer":0,
			"byteLength":38320,
			"byteOffset":2620808,
			"target":34962
		},
		{
			"buffer":0,
			"byteLength":57480,
			"byteOffset":2659128,
			"target":34962
		},
		{
			"buffer":0,
			"byteLength":35136,
			"byteOffset":2716608,
			"target":34963
		},
		{
			"buffer":0,
			"byteLength":36,
			"byteOffset":2751744
		},
		{
			"buffer":0,
			"byteLength":144,
			"byteOffset":2751780
		},
		{
			"buffer":0,
			"byteLength":4,
			"byteOffset":2751924
		},
		{
			"buffer":0,
			"byteLength":12,
			"byteOffset":2751928
		},
		{
			"buffer":0,
			"byteLength":12,
			"byteOffset":2751940
		},
		{
			"buffer":0,
			"byteLength":144,
			"byteOffset":2751952
		},
		{
			"buffer":0,
			"byteLength":12,
			"byteOffset":2752096
		},
		{
			"buffer":0,
			"byteLength":12,
			"byteOffset":2752108
		},
		{
			"buffer":0,
			"byteLength":144,
			"byteOffset":2752120
		},
		{
			"buffer":0,
			"byteLength":12,
			"byteOffset":2752264
		},
		{
			"buffer":0,
			"byteLength":12,
			"byteOffset":2752276
		},
		{
			"buffer":0,
			"byteLength":144,
			"byteOffset":2752288
		},
		{
			"buffer":0,
			"byteLength":12,
			"byteOffset":2752432
		},
		{
			"buffer":0,
			"byteLength":12,
			"byteOffset":2752444
		},
		{
			"buffer":0,
			"byteLength":4,
			"byteOffset":2752456
		},
		{
			"buffer":0,
			"byteLength":12,
			"byteOffset":2752460
		}
	],
	"samplers":[
		{
			"magFilter":9729,
			"minFilter":9987
		}
	],
	"buffers":[
		{
			"byteLength":2752472,
			"uri":"data:application/octet-stream;base64,"
		}
	]
}
